<svg width="20" height="20" viewBox="0 0 20 20" fill="none" xmlns="http://www.w3.org/2000/svg">
<path fill-rule="evenodd" clip-rule="evenodd" d="M2.08333 0.833313C1.6231 0.833313 1.25 1.20641 1.25 1.66665C1.25 2.12688 1.6231 2.49998 2.08333 2.49998C2.69035 2.49998 3.22066 2.94105 3.32984 3.56165L3.90141 6.81056L3.90192 6.81343L4.26813 8.86004C4.49716 10.1401 4.68006 11.1623 4.9113 11.9743C5.14977 12.8117 5.45884 13.5007 5.98376 14.083C6.3443 14.483 6.76614 14.8253 7.23364 15.0985C7.91088 15.4943 8.65747 15.6686 9.54511 15.752C10.4099 15.8333 11.4817 15.8333 12.8319 15.8333H13.2424C13.8429 15.8333 14.338 15.8333 14.7459 15.8037C15.1708 15.7727 15.5575 15.7068 15.9327 15.5469C16.4799 15.3136 16.9591 14.9469 17.3221 14.479C17.5727 14.1559 17.7291 13.7997 17.8574 13.4018C17.9798 13.0221 18.0915 12.5541 18.2256 11.9918L18.2425 11.9209C18.4465 11.0662 18.6131 10.3679 18.6937 9.7977C18.7767 9.21098 18.7858 8.65914 18.5969 8.12724C18.3313 7.37949 17.8086 6.74997 17.1246 6.33986C16.6428 6.05096 16.098 5.93792 15.4935 5.88498C14.9033 5.83329 14.1638 5.8333 13.2512 5.83331H5.42175L4.9713 3.27288C4.72412 1.86785 3.51195 0.833313 2.08333 0.833313ZM13.2122 7.49998C14.173 7.49998 14.8393 7.50073 15.3481 7.54529C15.851 7.58933 16.1024 7.67025 16.2676 7.76927C16.628 7.98537 16.8934 8.31075 17.0264 8.68507C17.0843 8.84826 17.1108 9.08836 17.0435 9.56423C16.9751 10.0477 16.8276 10.6696 16.6118 11.5743C16.4684 12.1752 16.3713 12.5798 16.2711 12.8904C16.1746 13.1898 16.0921 13.3454 16.0052 13.4574C15.8193 13.6971 15.57 13.8897 15.2791 14.0137C15.139 14.0734 14.955 14.1174 14.6249 14.1414C14.2847 14.1661 13.8504 14.1666 13.2122 14.1666H12.874C11.4724 14.1666 10.4788 14.1658 9.70108 14.0927C8.93732 14.0209 8.45978 13.8847 8.0746 13.6596C7.75362 13.472 7.46605 13.2381 7.22168 12.9671C6.93152 12.6452 6.71522 12.2236 6.51424 11.5178C6.30866 10.7959 6.13956 9.85648 5.90092 8.5228L5.7179 7.49998H13.2122Z" fill="#B3B3B3"/>
<path d="M8.75 17.2916C8.75 17.8669 8.28363 18.3333 7.70833 18.3333C7.13304 18.3333 6.66667 17.8669 6.66667 17.2916C6.66667 16.7163 7.13304 16.25 7.70833 16.25C8.28363 16.25 8.75 16.7163 8.75 17.2916Z" fill="#B3B3B3"/>
<path d="M15.2083 18.3333C15.7836 18.3333 16.25 17.8669 16.25 17.2916C16.25 16.7163 15.7836 16.25 15.2083 16.25C14.633 16.25 14.1667 16.7163 14.1667 17.2916C14.1667 17.8669 14.633 18.3333 15.2083 18.3333Z" fill="#B3B3B3"/>
</svg>
