<svg width="300" height="300" viewBox="0 0 300 300" fill="none" xmlns="http://www.w3.org/2000/svg">
<path d="M149.5 271C216.879 271 271.5 216.603 271.5 149.5C271.5 82.3974 216.879 28 149.5 28C82.1213 28 27.5 82.3974 27.5 149.5C27.5 216.603 82.1213 271 149.5 271Z" fill="#F7D394"/>
<path fill-rule="evenodd" clip-rule="evenodd" d="M247.005 95.2006C251.132 92.1729 252.023 86.3729 248.996 82.2459C245.968 78.1188 240.168 77.2277 236.041 80.2554C231.914 83.2832 231.023 89.0832 234.05 93.2102C235.918 95.7556 238.84 97.0701 241.773 96.9934C241.983 96.9702 242.2 96.9569 242.421 96.9538C244.026 96.7991 245.611 96.2235 247.005 95.2006ZM204.674 97.7026C213.824 99.7401 222.144 101.012 230.505 99.8765C229.705 99.1496 228.966 98.3324 228.302 97.4273C222.945 90.1257 224.522 79.864 231.824 74.5073C239.126 69.1505 249.387 70.7272 254.744 78.0288C257.53 81.8271 258.441 86.4264 257.645 90.7196C264.257 86.9802 270.143 82.2559 274.715 76.2151C275.904 74.6453 278.13 74.3876 279.689 75.6394C281.248 76.8913 281.548 79.1787 280.36 80.7485C272.104 91.6558 260.571 98.0456 248.688 102.48C247.002 103.301 245.22 103.81 243.42 104.018C229.961 108.898 216.075 107.721 203.102 104.832C201.197 104.408 200.005 102.468 200.439 100.499C200.873 98.5307 202.769 97.2785 204.674 97.7026Z" fill="black"/>
<path d="M221 99.5C221 74.9233 201.077 55 176.5 55H138V144H176.5C201.077 144 221 124.077 221 99.5Z" fill="#040404"/>
<path d="M173.409 124.555C167.387 136.231 157.307 143.875 145.896 143.875H134.872C116.42 143.875 101.456 123.883 101.456 99.2278C101.456 74.573 116.42 54.587 134.872 54.58H145.93C157.342 54.58 167.436 62.211 173.443 73.9001C177.316 81.7792 179.329 90.4415 179.329 99.2208C179.329 108 177.316 116.662 173.443 124.542L173.409 124.555Z" fill="#91D6A8"/>
<path d="M162.26 124.555C156.253 136.21 146.194 143.848 134.803 143.875C116.364 143.875 101.421 123.869 101.421 99.2278C101.421 74.5869 116.364 54.6078 134.803 54.58C146.194 54.58 156.253 62.211 162.26 73.9001C166.138 81.7779 168.154 90.4407 168.154 99.2208C168.154 108.001 166.138 116.664 162.26 124.542V124.555Z" fill="#FF5C00"/>
<path d="M135.802 107.46C134.176 104.54 131.452 102.627 128.368 102.62C123.375 102.62 119.33 107.632 119.33 113.805C119.33 119.978 123.375 124.983 128.368 124.99C131.452 124.99 134.176 123.078 135.802 120.15C136.852 118.176 137.398 116.006 137.398 113.807C137.398 111.607 136.852 109.437 135.802 107.463V107.46Z" fill="white"/>
<path d="M135.802 77.3455C134.176 74.4258 131.452 72.5123 128.368 72.5054C123.375 72.5054 119.33 77.5175 119.33 83.6906C119.33 89.8637 123.375 94.8689 128.368 94.8759C131.452 94.8759 134.176 92.9642 135.802 90.0358C136.852 88.0622 137.398 85.892 137.398 83.6924C137.398 81.4928 136.852 79.3225 135.802 77.349V77.3455Z" fill="white"/>
<path d="M98 114.475C98 118.631 101.369 122 105.525 122H127C131.418 122 135 118.418 135 114C135 109.582 131.418 106 127 106H105.525C101.369 106 98 109.369 98 113.525V114.475Z" fill="black"/>
<path d="M98 83.5C98 87.6421 101.358 91 105.5 91H127.5C131.642 91 135 87.6421 135 83.5C135 79.3579 131.642 76 127.5 76H105.5C101.358 76 98 79.3579 98 83.5Z" fill="black"/>
<path fill-rule="evenodd" clip-rule="evenodd" d="M27.3569 204.844C44.6521 194.459 64.2449 192.482 83.0038 193.103C85.6842 193.192 87.7852 195.437 87.6964 198.117C87.6075 200.798 85.3626 202.899 82.6822 202.81C64.6788 202.213 47.3041 204.195 32.3567 213.171C30.0574 214.551 27.0743 213.807 25.6936 211.507C24.313 209.208 25.0576 206.225 27.3569 204.844Z" fill="black"/>
<path d="M69 197.5C69 172.923 88.9233 153 113.5 153H152V242H113.5C88.9233 242 69 222.077 69 197.5Z" fill="#040404"/>
<path d="M109.961 222.685C115.99 234.361 126.069 242.005 137.481 242.005H148.539C166.992 242.005 181.955 222.012 181.955 197.358C181.955 172.703 166.992 152.717 148.539 152.71H137.481C126.069 152.71 115.976 160.341 109.961 172.03C106.02 179.887 104.001 188.568 104.072 197.358C104.001 206.147 106.02 214.828 109.961 222.685Z" fill="#91D6A8"/>
<path d="M121.109 222.685C127.123 234.34 137.175 241.978 148.573 242.005C167.012 242.005 181.955 221.999 181.955 197.358C181.955 172.717 167.012 152.738 148.573 152.717C137.175 152.717 127.123 160.348 121.109 172.03C117.167 179.887 115.149 188.568 115.219 197.358C115.149 206.147 117.167 214.828 121.109 222.685Z" fill="#FF5C00"/>
<path d="M151.595 203.287C156.109 203.287 159.769 208.102 159.769 214.042C159.769 219.982 156.109 224.797 151.595 224.797C147.08 224.797 143.421 219.982 143.421 214.042C143.421 208.102 147.08 203.287 151.595 203.287Z" fill="white"/>
<path d="M151.595 168.871C156.109 168.871 159.769 173.686 159.769 179.626C159.769 185.566 156.109 190.381 151.595 190.381C147.08 190.381 143.421 185.566 143.421 179.626C143.421 173.686 147.08 168.871 151.595 168.871Z" fill="white"/>
<path fill-rule="evenodd" clip-rule="evenodd" d="M238.072 40.5027C239.378 35.2084 239.293 30.1099 239.449 24.7397C239.48 23.691 238.654 22.8191 237.605 22.7875C236.555 22.7559 235.68 23.5835 235.649 24.6323C235.5 29.7245 235.62 34.5703 234.381 39.5993C234.13 40.6164 234.754 41.6462 235.773 41.8926C236.791 42.1454 237.822 41.5199 238.072 40.5027Z" fill="black"/>
<path fill-rule="evenodd" clip-rule="evenodd" d="M249.168 50.7634C258.028 42.6892 266.375 32.3027 272.21 21.815C272.719 20.899 272.387 19.7427 271.47 19.2373C270.552 18.7319 269.394 19.0604 268.885 19.9765C263.243 30.1167 255.17 40.1621 246.603 47.9646C245.829 48.6722 245.775 49.8726 246.482 50.6434C247.19 51.4142 248.394 51.471 249.168 50.7634Z" fill="black"/>
<path fill-rule="evenodd" clip-rule="evenodd" d="M251.412 59.5829C259.515 60.916 267.868 58.6416 275.236 55.4258C276.197 55.0025 276.635 53.8843 276.215 52.9303C275.795 51.97 274.672 51.534 273.711 51.951C267.001 54.8825 259.411 57.0558 252.031 55.8428C250.996 55.6722 250.017 56.3735 249.846 57.4033C249.675 58.4331 250.377 59.4123 251.412 59.5829Z" fill="black"/>
<path fill-rule="evenodd" clip-rule="evenodd" d="M28.1486 252.553C29.3031 252.141 30.518 251.594 31.4548 250.803C32.5675 249.863 33.02 248.652 33.3239 247.377C33.714 245.74 33.8699 243.995 34.343 242.355C34.5182 241.746 34.8553 241.516 34.9999 241.414C35.3655 241.156 35.735 241.087 36.0827 241.112C36.4948 241.142 37.0607 241.298 37.433 241.989C37.486 242.088 37.555 242.238 37.6015 242.445C37.6353 242.596 37.6572 243.069 37.693 243.264C37.7826 243.745 37.8576 244.225 37.9279 244.708C38.1621 246.316 38.2968 247.681 39.0366 249.158C40.0405 251.163 41.0464 252.39 42.4106 252.933C43.7296 253.459 45.3067 253.36 47.3218 252.948C47.5135 252.902 47.7033 252.862 47.891 252.829C48.7795 252.674 49.6288 253.257 49.8033 254.142C49.9778 255.027 49.4131 255.889 48.5327 256.083C48.3489 256.124 48.1677 256.162 47.9886 256.197C45.2656 256.871 42.1133 259.277 40.2814 261.384C39.7167 262.033 38.89 263.849 38.0467 265.008C37.4243 265.862 36.725 266.426 36.1378 266.625C35.7443 266.759 35.4126 266.738 35.1386 266.671C34.7405 266.572 34.4101 266.357 34.1566 266.014C34.0186 265.826 33.8905 265.574 33.8295 265.253C33.8003 265.099 33.797 264.706 33.7976 264.528C33.6258 263.937 33.4155 263.36 33.2622 262.763C32.8966 261.34 32.1793 260.439 31.3274 259.249C30.5305 258.135 29.6747 257.435 28.42 256.876C28.2568 256.836 26.9397 256.514 26.4746 256.329C25.7952 256.057 25.4714 255.603 25.3539 255.358C25.1542 254.942 25.1337 254.58 25.1735 254.277C25.2325 253.83 25.4329 253.448 25.7885 253.14C26.0088 252.948 26.3379 252.762 26.7785 252.671C27.1189 252.6 28.0218 252.559 28.1486 252.553ZM35.8751 250.233C35.9361 250.369 36.0011 250.506 36.0701 250.644C37.5404 253.58 39.1846 255.22 41.1831 256.015L41.2501 256.041C39.9131 257.034 38.7029 258.143 37.778 259.207C37.3971 259.645 36.8929 260.554 36.3481 261.487C35.8532 259.878 35.0437 258.741 34.0259 257.318C33.2483 256.232 32.4335 255.414 31.4323 254.748C32.2092 254.349 32.9503 253.882 33.5959 253.337C34.6708 252.429 35.3814 251.376 35.8751 250.233Z" fill="#802E00"/>
<path fill-rule="evenodd" clip-rule="evenodd" d="M14.9918 89.4452C16.1463 89.0338 17.3612 88.4871 18.2981 87.6955C19.4108 86.7553 19.8633 85.5445 20.1672 84.2699C20.5573 82.6323 20.7132 80.888 21.1863 79.2478C21.3614 78.6387 21.6985 78.4085 21.8432 78.3063C22.2088 78.0482 22.5783 77.9792 22.926 78.0051C23.338 78.0349 23.904 78.1908 24.2762 78.8816C24.3293 78.9804 24.3983 79.131 24.4447 79.3374C24.4786 79.4887 24.5005 79.9617 24.5363 80.1568C24.6259 80.6372 24.7008 81.1176 24.7712 81.6006C25.0054 83.2083 25.1401 84.5737 25.8799 86.0507C26.8838 88.0558 27.8897 89.2826 29.2538 89.826C30.5729 90.3515 32.15 90.2527 34.165 89.8406C34.3568 89.7942 34.5465 89.7544 34.7343 89.7218C35.6227 89.5666 36.472 90.1498 36.6465 91.0349C36.821 91.9194 36.2564 92.7812 35.3759 92.9756C35.1922 93.0161 35.011 93.0546 34.8319 93.0898C32.1089 93.7639 28.9565 96.1697 27.1246 98.2764C26.56 98.9259 25.7333 100.742 24.89 101.9C24.2676 102.755 23.5683 103.318 22.9811 103.517C22.5876 103.651 22.2559 103.631 21.9818 103.563C21.5837 103.465 21.2533 103.249 20.9999 102.906C20.8619 102.718 20.7338 102.467 20.6727 102.146C20.6435 101.991 20.6402 101.599 20.6409 101.421C20.4691 100.83 20.2587 100.252 20.1055 99.6558C19.7399 98.2326 19.0226 97.3315 18.1707 96.1412C17.3738 95.0272 16.5179 94.3272 15.2632 93.7685C15.1 93.7287 13.783 93.4063 13.3178 93.2211C12.6384 92.9498 12.3146 92.4953 12.1972 92.2504C11.9975 91.8351 11.9769 91.4722 12.0167 91.1696C12.0758 90.7231 12.2762 90.3409 12.6318 90.0324C12.8521 89.8406 13.1812 89.6542 13.6217 89.5633C13.9621 89.4923 14.8651 89.4511 14.9918 89.4452ZM22.7183 87.1255C22.7794 87.2616 22.8444 87.3983 22.9134 87.5363C24.3837 90.4729 26.0279 92.1124 28.0263 92.908L28.0933 92.9339C26.7564 93.9264 25.5461 95.0358 24.6212 96.0994C24.2404 96.5373 23.7361 97.447 23.1914 98.3799C22.6964 96.7709 21.887 95.6336 20.8691 94.2104C20.0915 93.1243 19.2767 92.3069 18.2755 91.6407C19.0525 91.2419 19.7936 90.7748 20.4392 90.2294C21.5141 89.3211 22.2247 88.2688 22.7183 87.1255Z" fill="#802E00"/>
<path fill-rule="evenodd" clip-rule="evenodd" d="M200.992 262.445C202.146 262.034 203.361 261.487 204.298 260.695C205.411 259.755 205.863 258.544 206.167 257.27C206.557 255.632 206.713 253.888 207.186 252.248C207.361 251.639 207.699 251.408 207.843 251.306C208.209 251.048 208.578 250.979 208.926 251.005C209.338 251.035 209.904 251.191 210.276 251.882C210.329 251.98 210.398 252.131 210.445 252.337C210.479 252.489 210.5 252.962 210.536 253.157C210.626 253.637 210.701 254.118 210.771 254.601C211.005 256.208 211.14 257.574 211.88 259.051C212.884 261.056 213.89 262.283 215.254 262.826C216.573 263.351 218.15 263.253 220.165 262.841C220.357 262.794 220.547 262.754 220.734 262.722C221.623 262.567 222.472 263.15 222.647 264.035C222.821 264.919 222.256 265.781 221.376 265.976C221.192 266.016 221.011 266.055 220.832 266.09C218.109 266.764 214.957 269.17 213.125 271.276C212.56 271.926 211.733 273.742 210.89 274.9C210.268 275.755 209.568 276.318 208.981 276.517C208.588 276.651 208.256 276.631 207.982 276.563C207.584 276.465 207.253 276.249 207 275.906C206.862 275.718 206.734 275.467 206.673 275.146C206.644 274.991 206.64 274.599 206.641 274.421C206.469 273.83 206.259 273.252 206.105 272.656C205.74 271.233 205.023 270.332 204.171 269.141C203.374 268.027 202.518 267.327 201.263 266.769C201.1 266.729 199.783 266.406 199.318 266.221C198.638 265.95 198.315 265.495 198.197 265.25C197.997 264.835 197.977 264.472 198.017 264.17C198.076 263.723 198.276 263.341 198.632 263.032C198.852 262.841 199.181 262.654 199.622 262.563C199.962 262.492 200.865 262.451 200.992 262.445ZM208.718 260.126C208.779 260.262 208.844 260.398 208.913 260.536C210.384 263.473 212.028 265.112 214.026 265.908L214.093 265.934C212.756 266.926 211.546 268.036 210.621 269.099C210.24 269.537 209.736 270.447 209.191 271.38C208.696 269.771 207.887 268.634 206.869 267.21C206.092 266.124 205.277 265.307 204.276 264.641C205.052 264.242 205.794 263.775 206.439 263.229C207.514 262.321 208.225 261.269 208.718 260.126Z" fill="#802E00"/>
</svg>
