<svg width="35" height="23" viewBox="0 0 35 23" fill="none" xmlns="http://www.w3.org/2000/svg">
<g id="Vector">
<path d="M0.813844 11.5074V9.87936H1.7817V10.0542H1.00931V10.6043H1.70919V10.7792H1.00931V11.5074H0.813844Z" fill="#E6E6E6"/>
<path d="M3.15532 9.87936V11.5074H2.95986V9.87936H3.15532Z" fill="#E6E6E6"/>
<path d="M4.39062 11.5074V9.87936H4.93603C5.06213 9.87936 5.16564 9.90109 5.24656 9.94455C5.32748 9.98747 5.38738 10.0466 5.42626 10.1218C5.46514 10.1971 5.48458 10.2827 5.48458 10.3786C5.48458 10.4745 5.46514 10.5595 5.42626 10.6337C5.38738 10.7079 5.32774 10.7662 5.24735 10.8086C5.16696 10.8505 5.06423 10.8714 4.93918 10.8714H4.49781V10.6934H4.93287C5.01905 10.6934 5.0884 10.6806 5.14095 10.6552C5.19402 10.6298 5.23237 10.5937 5.25602 10.5471C5.28019 10.4999 5.29227 10.4438 5.29227 10.3786C5.29227 10.3134 5.28019 10.2564 5.25602 10.2077C5.23185 10.1589 5.19323 10.1213 5.14016 10.0948C5.08709 10.0678 5.01694 10.0542 4.92972 10.0542H4.58609V11.5074H4.39062ZM5.15041 10.776L5.54764 11.5074H5.32065L4.92972 10.776H5.15041Z" fill="#E6E6E6"/>
<path d="M7.53641 10.2864C7.52696 10.2058 7.4886 10.1433 7.42134 10.0988C7.35409 10.0542 7.27159 10.032 7.17386 10.032C7.1024 10.032 7.03988 10.0436 6.98628 10.067C6.93321 10.0903 6.8917 10.1223 6.86175 10.1631C6.83233 10.204 6.81762 10.2503 6.81762 10.3023C6.81762 10.3457 6.82786 10.3831 6.84835 10.4143C6.86937 10.4451 6.89617 10.4708 6.92875 10.4914C6.96132 10.5116 6.99548 10.5283 7.03121 10.5415C7.06694 10.5542 7.09978 10.5646 7.12973 10.5725L7.29366 10.617C7.3357 10.6282 7.38246 10.6435 7.43395 10.6632C7.48597 10.6828 7.53563 10.7095 7.58292 10.7434C7.63073 10.7768 7.67014 10.8197 7.70114 10.8722C7.73214 10.9247 7.74764 10.9891 7.74764 11.0654C7.74764 11.1533 7.72478 11.2328 7.67907 11.3039C7.63388 11.3749 7.56768 11.4313 7.48045 11.4732C7.39376 11.515 7.28841 11.536 7.1644 11.536C7.04881 11.536 6.94871 11.5172 6.86412 11.4795C6.78005 11.4419 6.71384 11.3894 6.6655 11.3221C6.61769 11.2548 6.59063 11.1767 6.58432 11.0876H6.78609C6.79134 11.1491 6.81184 11.2 6.84757 11.2403C6.88382 11.28 6.92953 11.3097 6.9847 11.3293C7.0404 11.3484 7.1003 11.3579 7.1644 11.3579C7.23902 11.3579 7.30601 11.3457 7.36538 11.3213C7.42476 11.2964 7.47179 11.262 7.50646 11.218C7.54114 11.1735 7.55848 11.1216 7.55848 11.0622C7.55848 11.0081 7.54351 10.9642 7.51356 10.9302C7.48361 10.8963 7.4442 10.8688 7.39533 10.8476C7.34647 10.8264 7.29366 10.8078 7.23692 10.7919L7.0383 10.7347C6.91219 10.6981 6.81236 10.6459 6.7388 10.5781C6.66524 10.5103 6.62846 10.4215 6.62846 10.3118C6.62846 10.2206 6.65289 10.1412 6.70176 10.0733C6.75115 10.005 6.81735 9.95197 6.90037 9.91434C6.98392 9.87618 7.07718 9.85711 7.18017 9.85711C7.2842 9.85711 7.37668 9.87592 7.4576 9.91354C7.53852 9.95064 7.60262 10.0015 7.64991 10.0662C7.69772 10.1308 7.72294 10.2042 7.72557 10.2864H7.53641Z" fill="#E6E6E6"/>
<path d="M8.82413 10.0542V9.87936H10.0347V10.0542H9.52716V11.5074H9.3317V10.0542H8.82413Z" fill="#E6E6E6"/>
<path d="M13.9463 10.3881H13.7508C13.7393 10.3314 13.719 10.2816 13.6901 10.2387C13.6618 10.1957 13.6271 10.1597 13.5861 10.1306C13.5456 10.1009 13.5007 10.0786 13.4513 10.0638C13.4019 10.0489 13.3504 10.0415 13.2968 10.0415C13.1991 10.0415 13.1106 10.0664 13.0312 10.1162C12.9524 10.1661 12.8896 10.2395 12.8429 10.3364C12.7966 10.4334 12.7735 10.5524 12.7735 10.6934C12.7735 10.8343 12.7966 10.9533 12.8429 11.0503C12.8896 11.1473 12.9524 11.2207 13.0312 11.2705C13.1106 11.3203 13.1991 11.3452 13.2968 11.3452C13.3504 11.3452 13.4019 11.3378 13.4513 11.3229C13.5007 11.3081 13.5456 11.2861 13.5861 11.257C13.6271 11.2273 13.6618 11.191 13.6901 11.148C13.719 11.1046 13.7393 11.0548 13.7508 10.9986H13.9463C13.9316 11.0818 13.9048 11.1563 13.8659 11.222C13.827 11.2877 13.7787 11.3436 13.7209 11.3897C13.6631 11.4353 13.5982 11.47 13.5262 11.4938C13.4547 11.5177 13.3783 11.5296 13.2968 11.5296C13.1592 11.5296 13.0368 11.4957 12.9296 11.4279C12.8224 11.36 12.738 11.2636 12.6766 11.1385C12.6151 11.0134 12.5843 10.8651 12.5843 10.6934C12.5843 10.5217 12.6151 10.3733 12.6766 10.2482C12.738 10.1231 12.8224 10.0267 12.9296 9.95886C13.0368 9.89102 13.1592 9.85711 13.2968 9.85711C13.3783 9.85711 13.4547 9.86903 13.5262 9.89288C13.5982 9.91672 13.6631 9.9517 13.7209 9.99781C13.7787 10.0434 13.827 10.099 13.8659 10.1647C13.9048 10.2299 13.9316 10.3044 13.9463 10.3881Z" fill="#E6E6E6"/>
<path d="M16.4675 10.6934C16.4675 10.8651 16.4367 11.0134 16.3752 11.1385C16.3138 11.2636 16.2294 11.36 16.1222 11.4279C16.0151 11.4957 15.8926 11.5296 15.755 11.5296C15.6173 11.5296 15.4949 11.4957 15.3877 11.4279C15.2805 11.36 15.1962 11.2636 15.1347 11.1385C15.0732 11.0134 15.0425 10.8651 15.0425 10.6934C15.0425 10.5217 15.0732 10.3733 15.1347 10.2482C15.1962 10.1231 15.2805 10.0267 15.3877 9.95886C15.4949 9.89102 15.6173 9.85711 15.755 9.85711C15.8926 9.85711 16.0151 9.89102 16.1222 9.95886C16.2294 10.0267 16.3138 10.1231 16.3752 10.2482C16.4367 10.3733 16.4675 10.5217 16.4675 10.6934ZM16.2783 10.6934C16.2783 10.5524 16.2549 10.4334 16.2082 10.3364C16.1619 10.2395 16.0991 10.1661 16.0198 10.1162C15.941 10.0664 15.8527 10.0415 15.755 10.0415C15.6572 10.0415 15.5687 10.0664 15.4894 10.1162C15.4105 10.1661 15.3478 10.2395 15.301 10.3364C15.2548 10.4334 15.2316 10.5524 15.2316 10.6934C15.2316 10.8343 15.2548 10.9533 15.301 11.0503C15.3478 11.1473 15.4105 11.2207 15.4894 11.2705C15.5687 11.3203 15.6572 11.3452 15.755 11.3452C15.8527 11.3452 15.941 11.3203 16.0198 11.2705C16.0991 11.2207 16.1619 11.1473 16.2082 11.0503C16.2549 10.9533 16.2783 10.8343 16.2783 10.6934Z" fill="#E6E6E6"/>
<path d="M17.6395 11.5074V9.87936H17.835V11.3325H18.5853V11.5074H17.6395Z" fill="#E6E6E6"/>
<path d="M19.7313 11.5074V9.87936H19.9268V11.3325H20.6771V11.5074H19.7313Z" fill="#E6E6E6"/>
<path d="M21.8232 11.5074V9.87936H22.7973V10.0542H22.0186V10.6043H22.7469V10.7792H22.0186V11.3325H22.8099V11.5074H21.8232Z" fill="#E6E6E6"/>
<path d="M25.2919 10.3881H25.0964C25.0849 10.3314 25.0647 10.2816 25.0358 10.2387C25.0074 10.1957 24.9727 10.1597 24.9317 10.1306C24.8913 10.1009 24.8463 10.0786 24.7969 10.0638C24.7476 10.0489 24.6961 10.0415 24.6425 10.0415C24.5447 10.0415 24.4562 10.0664 24.3769 10.1162C24.298 10.1661 24.2353 10.2395 24.1885 10.3364C24.1423 10.4334 24.1191 10.5524 24.1191 10.6934C24.1191 10.8343 24.1423 10.9533 24.1885 11.0503C24.2353 11.1473 24.298 11.2207 24.3769 11.2705C24.4562 11.3203 24.5447 11.3452 24.6425 11.3452C24.6961 11.3452 24.7476 11.3378 24.7969 11.3229C24.8463 11.3081 24.8913 11.2861 24.9317 11.257C24.9727 11.2273 25.0074 11.191 25.0358 11.148C25.0647 11.1046 25.0849 11.0548 25.0964 10.9986H25.2919C25.2772 11.0818 25.2504 11.1563 25.2115 11.222C25.1726 11.2877 25.1243 11.3436 25.0665 11.3897C25.0087 11.4353 24.9438 11.47 24.8718 11.4938C24.8004 11.5177 24.7239 11.5296 24.6425 11.5296C24.5048 11.5296 24.3824 11.4957 24.2752 11.4279C24.168 11.36 24.0837 11.2636 24.0222 11.1385C23.9607 11.0134 23.93 10.8651 23.93 10.6934C23.93 10.5217 23.9607 10.3733 24.0222 10.2482C24.0837 10.1231 24.168 10.0267 24.2752 9.95886C24.3824 9.89102 24.5048 9.85711 24.6425 9.85711C24.7239 9.85711 24.8004 9.86903 24.8718 9.89288C24.9438 9.91672 25.0087 9.9517 25.0665 9.99781C25.1243 10.0434 25.1726 10.099 25.2115 10.1647C25.2504 10.2299 25.2772 10.3044 25.2919 10.3881Z" fill="#E6E6E6"/>
<path d="M26.3629 10.0542V9.87936H27.5735V10.0542H27.0659V11.5074H26.8705V10.0542H26.3629Z" fill="#E6E6E6"/>
<path d="M28.914 9.87936V11.5074H28.7185V9.87936H28.914Z" fill="#E6E6E6"/>
<path d="M31.5112 10.6934C31.5112 10.8651 31.4805 11.0134 31.419 11.1385C31.3576 11.2636 31.2732 11.36 31.166 11.4279C31.0588 11.4957 30.9364 11.5296 30.7987 11.5296C30.6611 11.5296 30.5387 11.4957 30.4315 11.4279C30.3243 11.36 30.2399 11.2636 30.1785 11.1385C30.117 11.0134 30.0863 10.8651 30.0863 10.6934C30.0863 10.5217 30.117 10.3733 30.1785 10.2482C30.2399 10.1231 30.3243 10.0267 30.4315 9.95886C30.5387 9.89102 30.6611 9.85711 30.7987 9.85711C30.9364 9.85711 31.0588 9.89102 31.166 9.95886C31.2732 10.0267 31.3576 10.1231 31.419 10.2482C31.4805 10.3733 31.5112 10.5217 31.5112 10.6934ZM31.3221 10.6934C31.3221 10.5524 31.2987 10.4334 31.2519 10.3364C31.2057 10.2395 31.1429 10.1661 31.0636 10.1162C30.9848 10.0664 30.8965 10.0415 30.7987 10.0415C30.701 10.0415 30.6125 10.0664 30.5331 10.1162C30.4543 10.1661 30.3915 10.2395 30.3448 10.3364C30.2985 10.4334 30.2754 10.5524 30.2754 10.6934C30.2754 10.8343 30.2985 10.9533 30.3448 11.0503C30.3915 11.1473 30.4543 11.2207 30.5331 11.2705C30.6125 11.3203 30.701 11.3452 30.7987 11.3452C30.8965 11.3452 30.9848 11.3203 31.0636 11.2705C31.1429 11.2207 31.2057 11.1473 31.2519 11.0503C31.2987 10.9533 31.3221 10.8343 31.3221 10.6934Z" fill="#E6E6E6"/>
<path d="M33.9633 9.87936V11.5074H33.7741L32.8945 10.2291H32.8788V11.5074H32.6833V9.87936H32.8725L33.7552 11.1608H33.771V9.87936H33.9633Z" fill="#E6E6E6"/>
<path d="M14.0339 21.7501C14.0265 21.6875 13.9967 21.6388 13.9444 21.6042C13.892 21.5696 13.8279 21.5523 13.7519 21.5523C13.6963 21.5523 13.6477 21.5613 13.606 21.5795C13.5647 21.5976 13.5324 21.6225 13.5091 21.6543C13.4862 21.686 13.4748 21.7221 13.4748 21.7625C13.4748 21.7963 13.4828 21.8253 13.4987 21.8496C13.515 21.8736 13.5359 21.8935 13.5612 21.9096C13.5866 21.9253 13.6131 21.9383 13.6409 21.9486C13.6687 21.9585 13.6942 21.9665 13.7175 21.9727L13.845 22.0073C13.8777 22.016 13.9141 22.0279 13.9542 22.0432C13.9946 22.0584 14.0332 22.0792 14.07 22.1056C14.1072 22.1316 14.1379 22.165 14.162 22.2058C14.1861 22.2466 14.1981 22.2967 14.1981 22.356C14.1981 22.4244 14.1804 22.4863 14.1448 22.5415C14.1097 22.5967 14.0582 22.6406 13.9903 22.6732C13.9229 22.7057 13.841 22.722 13.7445 22.722C13.6546 22.722 13.5767 22.7074 13.511 22.6781C13.4456 22.6489 13.3941 22.6081 13.3565 22.5557C13.3193 22.5034 13.2982 22.4426 13.2933 22.3733H13.4503C13.4544 22.4211 13.4703 22.4607 13.4981 22.492C13.5263 22.5229 13.5618 22.546 13.6047 22.5613C13.6481 22.5761 13.6947 22.5835 13.7445 22.5835C13.8025 22.5835 13.8546 22.5741 13.9008 22.5551C13.947 22.5357 13.9836 22.5089 14.0106 22.4747C14.0375 22.4401 14.051 22.3997 14.051 22.3535C14.051 22.3115 14.0394 22.2773 14.0161 22.2509C13.9928 22.2245 13.9621 22.2031 13.9241 22.1866C13.8861 22.1701 13.845 22.1557 13.8009 22.1433L13.6464 22.0988C13.5483 22.0704 13.4707 22.0298 13.4135 21.977C13.3563 21.9243 13.3277 21.8552 13.3277 21.7699C13.3277 21.699 13.3467 21.6372 13.3847 21.5844C13.4231 21.5312 13.4746 21.49 13.5392 21.4608C13.6041 21.4311 13.6767 21.4162 13.7568 21.4162C13.8377 21.4162 13.9096 21.4309 13.9725 21.4601C14.0355 21.489 14.0853 21.5286 14.1221 21.5788C14.1593 21.6291 14.1789 21.6862 14.181 21.7501H14.0339Z" fill="#E6E6E6"/>
<path d="M15.1041 22.6998V21.4336H15.2561V21.9974H15.9255V21.4336H16.0775V22.6998H15.9255V22.1334H15.2561V22.6998H15.1041Z" fill="#E6E6E6"/>
<path d="M18.0971 22.0667C18.0971 22.2002 18.0732 22.3156 18.0254 22.4129C17.9776 22.5102 17.912 22.5852 17.8286 22.6379C17.7453 22.6907 17.65 22.7171 17.543 22.7171C17.4359 22.7171 17.3407 22.6907 17.2573 22.6379C17.1739 22.5852 17.1083 22.5102 17.0605 22.4129C17.0127 22.3156 16.9888 22.2002 16.9888 22.0667C16.9888 21.9331 17.0127 21.8177 17.0605 21.7204C17.1083 21.6232 17.1739 21.5481 17.2573 21.4954C17.3407 21.4426 17.4359 21.4162 17.543 21.4162C17.65 21.4162 17.7453 21.4426 17.8286 21.4954C17.912 21.5481 17.9776 21.6232 18.0254 21.7204C18.0732 21.8177 18.0971 21.9331 18.0971 22.0667ZM17.95 22.0667C17.95 21.957 17.9318 21.8645 17.8955 21.7891C17.8595 21.7136 17.8107 21.6565 17.7489 21.6178C17.6876 21.5791 17.619 21.5597 17.543 21.5597C17.467 21.5597 17.3981 21.5791 17.3364 21.6178C17.2751 21.6565 17.2263 21.7136 17.1899 21.7891C17.1539 21.8645 17.1359 21.957 17.1359 22.0667C17.1359 22.1763 17.1539 22.2688 17.1899 22.3443C17.2263 22.4197 17.2751 22.4768 17.3364 22.5155C17.3981 22.5543 17.467 22.5736 17.543 22.5736C17.619 22.5736 17.6876 22.5543 17.7489 22.5155C17.8107 22.4768 17.8595 22.4197 17.8955 22.3443C17.9318 22.2688 17.95 22.1763 17.95 22.0667Z" fill="#E6E6E6"/>
<path d="M19.0087 22.6998V21.4336H19.7664V21.5696H19.1608V21.9974H19.7272V22.1334H19.1608V22.5637H19.7762V22.6998H19.0087Z" fill="#E6E6E6"/>
<path d="M20.6547 22.6998V22.5885L21.3315 21.5696H20.6474V21.4336H21.5129V21.5448L20.8362 22.5637H21.5203V22.6998H20.6547Z" fill="#E6E6E6"/>
<path d="M3.74959 13.2484V19.4793H0.741684V20.2126H10.4924V19.4793H7.12813V13.2484H3.74959Z" fill="#E6E6E6"/>
<path d="M3.74959 8.02528H7.12813V1.6653H11.2765C12.7971 1.6653 13.8757 1.90014 14.5125 2.36981C15.1587 2.83948 15.6482 3.64464 15.9808 4.78527C16.3134 5.91632 16.4797 6.5729 16.4797 6.75502H17.1212L16.8789 0.932038H0.741684V1.6653H3.74959V8.02528Z" fill="#E6E6E6"/>
<path d="M11.538 8.02528H12.531V6.39558H11.8039C11.7609 7.03544 11.6723 7.57868 11.538 8.02528Z" fill="#E6E6E6"/>
<path d="M12.531 13.2484H11.6548C11.7237 13.6314 11.7734 14.0693 11.8039 14.5621H12.531V13.2484Z" fill="#E6E6E6"/>
<path d="M19.9228 13.2484H23.6076C23.6734 14.8668 23.804 16.0476 23.9992 16.7907C24.2938 17.9121 24.8023 18.7173 25.5245 19.2061C26.2563 19.6854 27.0594 19.925 27.9337 19.925C29.0741 19.925 30.1433 19.4937 31.1412 18.631C32.1486 17.7588 32.9279 16.3641 33.4791 14.4471H34.1491L33.921 20.3276H33.3365C33.1179 19.7141 32.7758 19.1965 32.3101 18.7748C30.8086 20.0305 29.2642 20.6583 27.6771 20.6583C25.6623 20.6583 23.8234 19.695 22.1602 17.7684C21.0312 16.4605 20.2854 14.9538 19.9228 13.2484Z" fill="#E6E6E6"/>
<path d="M23.6118 8.02528H19.9312C20.2921 6.30808 21.0209 4.78716 22.1175 3.46252C23.7521 1.47839 25.6433 0.486328 27.7912 0.486328C29.4448 0.486328 30.9036 1.0854 32.1676 2.28354C32.5382 1.68926 32.8186 1.16687 33.0087 0.716372H33.6216V6.43871H33.0087C32.3434 2.9593 30.6232 1.21959 27.8482 1.21959C26.3561 1.21959 25.2679 1.80908 24.5837 2.98805C24.0571 3.89526 23.7332 5.57434 23.6118 8.02528Z" fill="#E6E6E6"/>
</g>
</svg>
