<svg width="41" height="28" viewBox="0 0 41 28" fill="none" xmlns="http://www.w3.org/2000/svg">
<path d="M0.0885601 13.8822V11.9012H1.27638V12.114H0.328446V12.7833H1.18739V12.9961H0.328446V13.8822H0.0885601Z" fill="#FEFEFE"/>
<path d="M2.96219 11.9012V13.8822H2.72231V11.9012H2.96219Z" fill="#FEFEFE"/>
<path d="M4.47824 13.8822V11.9012H5.1476C5.30237 11.9012 5.4294 11.9276 5.52871 11.9805C5.62802 12.0327 5.70153 12.1046 5.74925 12.1962C5.79697 12.2878 5.82083 12.3919 5.82083 12.5086C5.82083 12.6253 5.79697 12.7288 5.74925 12.8191C5.70153 12.9094 5.62834 12.9803 5.52968 13.0319C5.43102 13.0829 5.30495 13.1083 5.15147 13.1083H4.60979V12.8917H5.14373C5.24949 12.8917 5.33461 12.8762 5.3991 12.8452C5.46423 12.8143 5.5113 12.7704 5.54032 12.7137C5.56998 12.6563 5.58481 12.5879 5.58481 12.5086C5.58481 12.4293 5.56998 12.36 5.54032 12.3007C5.51066 12.2413 5.46326 12.1955 5.39813 12.1633C5.333 12.1304 5.24691 12.114 5.13986 12.114H4.71813V13.8822H4.47824ZM5.4107 12.9923L5.89821 13.8822H5.61964L5.13986 12.9923H5.4107Z" fill="#FEFEFE"/>
<path d="M8.33899 12.3964C8.32738 12.2984 8.28031 12.2223 8.19776 12.1681C8.11522 12.114 8.01398 12.0869 7.89404 12.0869C7.80634 12.0869 7.7296 12.1011 7.66382 12.1294C7.59869 12.1578 7.54775 12.1968 7.51099 12.2465C7.47488 12.2961 7.45683 12.3526 7.45683 12.4158C7.45683 12.4686 7.4694 12.5141 7.49455 12.5521C7.52034 12.5895 7.55323 12.6208 7.59321 12.646C7.63319 12.6705 7.67511 12.6908 7.71896 12.7069C7.76281 12.7224 7.80311 12.735 7.83987 12.7446L8.04106 12.7988C8.09265 12.8123 8.15004 12.831 8.21324 12.8549C8.27708 12.8788 8.33802 12.9113 8.39606 12.9526C8.45474 12.9932 8.5031 13.0455 8.54115 13.1093C8.5792 13.1731 8.59822 13.2515 8.59822 13.3444C8.59822 13.4514 8.57017 13.5481 8.51407 13.6345C8.45861 13.7209 8.37736 13.7896 8.27031 13.8406C8.16391 13.8915 8.03462 13.917 7.88243 13.917C7.74056 13.917 7.61772 13.8941 7.5139 13.8483C7.41072 13.8025 7.32947 13.7387 7.27014 13.6568C7.21146 13.5749 7.17825 13.4798 7.17051 13.3714H7.41813C7.42458 13.4462 7.44973 13.5081 7.49358 13.5572C7.53808 13.6055 7.59418 13.6416 7.66189 13.6655C7.73024 13.6887 7.80376 13.7003 7.88243 13.7003C7.974 13.7003 8.05622 13.6855 8.12909 13.6558C8.20196 13.6255 8.25967 13.5836 8.30223 13.5301C8.34479 13.4759 8.36607 13.4127 8.36607 13.3405C8.36607 13.2747 8.34769 13.2212 8.31094 13.1799C8.27418 13.1386 8.22582 13.1051 8.16584 13.0793C8.10587 13.0535 8.04106 13.031 7.97142 13.0116L7.72766 12.942C7.5729 12.8975 7.45038 12.8339 7.3601 12.7514C7.26982 12.6689 7.22468 12.5609 7.22468 12.4274C7.22468 12.3165 7.25466 12.2197 7.31464 12.1372C7.37525 12.054 7.4565 11.9895 7.55839 11.9437C7.66092 11.8973 7.77538 11.8741 7.90178 11.8741C8.02946 11.8741 8.14295 11.897 8.24226 11.9428C8.34157 11.9879 8.42024 12.0498 8.47828 12.1285C8.53696 12.2071 8.56791 12.2965 8.57113 12.3964H8.33899Z" fill="#FEFEFE"/>
<path d="M9.91936 12.114V11.9012H11.4051V12.114H10.7822V13.8822H10.5423V12.114H9.91936Z" fill="#FEFEFE"/>
<path d="M16.2056 12.5202H15.9658C15.9516 12.4512 15.9267 12.3906 15.8913 12.3384C15.8565 12.2861 15.8139 12.2423 15.7636 12.2068C15.7139 12.1707 15.6588 12.1436 15.5982 12.1256C15.5376 12.1075 15.4744 12.0985 15.4086 12.0985C15.2887 12.0985 15.18 12.1288 15.0826 12.1894C14.9859 12.25 14.9088 12.3393 14.8514 12.4574C14.7947 12.5754 14.7663 12.7201 14.7663 12.8917C14.7663 13.0632 14.7947 13.208 14.8514 13.326C14.9088 13.444 14.9859 13.5333 15.0826 13.5939C15.18 13.6545 15.2887 13.6848 15.4086 13.6848C15.4744 13.6848 15.5376 13.6758 15.5982 13.6578C15.6588 13.6397 15.7139 13.6129 15.7636 13.5775C15.8139 13.5414 15.8565 13.4972 15.8913 13.4449C15.9267 13.3921 15.9516 13.3315 15.9658 13.2631H16.2056C16.1876 13.3643 16.1547 13.4549 16.107 13.5349C16.0593 13.6149 15.9999 13.6829 15.929 13.739C15.8581 13.7945 15.7784 13.8367 15.6901 13.8657C15.6024 13.8947 15.5086 13.9092 15.4086 13.9092C15.2397 13.9092 15.0894 13.868 14.9579 13.7854C14.8263 13.7029 14.7228 13.5855 14.6474 13.4333C14.5719 13.2812 14.5342 13.1006 14.5342 12.8917C14.5342 12.6827 14.5719 12.5022 14.6474 12.35C14.7228 12.1978 14.8263 12.0804 14.9579 11.9979C15.0894 11.9154 15.2397 11.8741 15.4086 11.8741C15.5086 11.8741 15.6024 11.8886 15.6901 11.9176C15.7784 11.9466 15.8581 11.9892 15.929 12.0453C15.9999 12.1007 16.0593 12.1685 16.107 12.2484C16.1547 12.3277 16.1876 12.4183 16.2056 12.5202Z" fill="#FEFEFE"/>
<path d="M19.2998 12.8917C19.2998 13.1006 19.2621 13.2812 19.1866 13.4333C19.1112 13.5855 19.0077 13.7029 18.8761 13.7854C18.7446 13.868 18.5943 13.9092 18.4254 13.9092C18.2564 13.9092 18.1062 13.868 17.9746 13.7854C17.8431 13.7029 17.7396 13.5855 17.6641 13.4333C17.5887 13.2812 17.551 13.1006 17.551 12.8917C17.551 12.6827 17.5887 12.5022 17.6641 12.35C17.7396 12.1978 17.8431 12.0804 17.9746 11.9979C18.1062 11.9154 18.2564 11.8741 18.4254 11.8741C18.5943 11.8741 18.7446 11.9154 18.8761 11.9979C19.0077 12.0804 19.1112 12.1978 19.1866 12.35C19.2621 12.5022 19.2998 12.6827 19.2998 12.8917ZM19.0677 12.8917C19.0677 12.7201 19.039 12.5754 18.9816 12.4574C18.9248 12.3393 18.8478 12.25 18.7504 12.1894C18.6537 12.1288 18.5453 12.0985 18.4254 12.0985C18.3055 12.0985 18.1968 12.1288 18.0994 12.1894C18.0027 12.25 17.9256 12.3393 17.8682 12.4574C17.8115 12.5754 17.7831 12.7201 17.7831 12.8917C17.7831 13.0632 17.8115 13.208 17.8682 13.326C17.9256 13.444 18.0027 13.5333 18.0994 13.5939C18.1968 13.6545 18.3055 13.6848 18.4254 13.6848C18.5453 13.6848 18.6537 13.6545 18.7504 13.5939C18.8478 13.5333 18.9248 13.444 18.9816 13.326C19.039 13.208 19.0677 13.0632 19.0677 12.8917Z" fill="#FEFEFE"/>
<path d="M20.7382 13.8822V11.9012H20.9781V13.6694H21.899V13.8822H20.7382Z" fill="#FEFEFE"/>
<path d="M23.3055 13.8822V11.9012H23.5454V13.6694H24.4662V13.8822H23.3055Z" fill="#FEFEFE"/>
<path d="M25.8727 13.8822V11.9012H27.0683V12.114H26.1126V12.7833H27.0064V12.9961H26.1126V13.6694H27.0838V13.8822H25.8727Z" fill="#FEFEFE"/>
<path d="M30.1298 12.5202H29.8899C29.8757 12.4512 29.8509 12.3906 29.8155 12.3384C29.7806 12.2861 29.7381 12.2423 29.6878 12.2068C29.6381 12.1707 29.583 12.1436 29.5224 12.1256C29.4618 12.1075 29.3986 12.0985 29.3328 12.0985C29.2128 12.0985 29.1042 12.1288 29.0068 12.1894C28.9101 12.25 28.833 12.3393 28.7756 12.4574C28.7189 12.5754 28.6905 12.7201 28.6905 12.8917C28.6905 13.0632 28.7189 13.208 28.7756 13.326C28.833 13.444 28.9101 13.5333 29.0068 13.5939C29.1042 13.6545 29.2128 13.6848 29.3328 13.6848C29.3986 13.6848 29.4618 13.6758 29.5224 13.6578C29.583 13.6397 29.6381 13.6129 29.6878 13.5775C29.7381 13.5414 29.7806 13.4972 29.8155 13.4449C29.8509 13.3921 29.8757 13.3315 29.8899 13.2631H30.1298C30.1118 13.3643 30.0789 13.4549 30.0312 13.5349C29.9834 13.6149 29.9241 13.6829 29.8532 13.739C29.7822 13.7945 29.7026 13.8367 29.6143 13.8657C29.5266 13.8947 29.4327 13.9092 29.3328 13.9092C29.1638 13.9092 29.0136 13.868 28.882 13.7854C28.7505 13.7029 28.647 13.5855 28.5715 13.4333C28.4961 13.2812 28.4584 13.1006 28.4584 12.8917C28.4584 12.6827 28.4961 12.5022 28.5715 12.35C28.647 12.1978 28.7505 12.0804 28.882 11.9979C29.0136 11.9154 29.1638 11.8741 29.3328 11.8741C29.4327 11.8741 29.5266 11.8886 29.6143 11.9176C29.7026 11.9466 29.7822 11.9892 29.8532 12.0453C29.9241 12.1007 29.9834 12.1685 30.0312 12.2484C30.0789 12.3277 30.1118 12.4183 30.1298 12.5202Z" fill="#FEFEFE"/>
<path d="M31.4442 12.114V11.9012H32.9299V12.114H32.307V13.8822H32.0671V12.114H31.4442Z" fill="#FEFEFE"/>
<path d="M34.5751 11.9012V13.8822H34.3352V11.9012H34.5751Z" fill="#FEFEFE"/>
<path d="M37.7626 12.8917C37.7626 13.1006 37.7249 13.2812 37.6495 13.4333C37.574 13.5855 37.4705 13.7029 37.339 13.7854C37.2074 13.868 37.0572 13.9092 36.8882 13.9092C36.7193 13.9092 36.569 13.868 36.4375 13.7854C36.3059 13.7029 36.2024 13.5855 36.127 13.4333C36.0515 13.2812 36.0138 13.1006 36.0138 12.8917C36.0138 12.6827 36.0515 12.5022 36.127 12.35C36.2024 12.1978 36.3059 12.0804 36.4375 11.9979C36.569 11.9154 36.7193 11.8741 36.8882 11.8741C37.0572 11.8741 37.2074 11.9154 37.339 11.9979C37.4705 12.0804 37.574 12.1978 37.6495 12.35C37.7249 12.5022 37.7626 12.6827 37.7626 12.8917ZM37.5305 12.8917C37.5305 12.7201 37.5018 12.5754 37.4444 12.4574C37.3877 12.3393 37.3106 12.25 37.2132 12.1894C37.1165 12.1288 37.0082 12.0985 36.8882 12.0985C36.7683 12.0985 36.6596 12.1288 36.5622 12.1894C36.4655 12.25 36.3885 12.3393 36.3311 12.4574C36.2743 12.5754 36.2459 12.7201 36.2459 12.8917C36.2459 13.0632 36.2743 13.208 36.3311 13.326C36.3885 13.444 36.4655 13.5333 36.5622 13.5939C36.6596 13.6545 36.7683 13.6848 36.8882 13.6848C37.0082 13.6848 37.1165 13.6545 37.2132 13.5939C37.3106 13.5333 37.3877 13.444 37.4444 13.326C37.5018 13.208 37.5305 13.0632 37.5305 12.8917Z" fill="#FEFEFE"/>
<path d="M40.7719 11.9012V13.8822H40.5398L39.4603 12.3268H39.441V13.8822H39.2011V11.9012H39.4332L40.5166 13.4604H40.5359V11.9012H40.7719Z" fill="#FEFEFE"/>
<path d="M16.3131 26.3459C16.3041 26.2697 16.2675 26.2105 16.2033 26.1684C16.1391 26.1262 16.0603 26.1052 15.967 26.1052C15.8988 26.1052 15.8391 26.1162 15.788 26.1383C15.7373 26.1603 15.6977 26.1907 15.6691 26.2293C15.641 26.2679 15.627 26.3118 15.627 26.361C15.627 26.4021 15.6368 26.4375 15.6563 26.467C15.6764 26.4961 15.702 26.5205 15.7331 26.54C15.7642 26.5591 15.7968 26.5749 15.8309 26.5874C15.865 26.5995 15.8963 26.6092 15.9249 26.6168L16.0814 26.6589C16.1215 26.6694 16.1662 26.684 16.2153 26.7025C16.265 26.7211 16.3124 26.7464 16.3575 26.7785C16.4031 26.8101 16.4408 26.8507 16.4704 26.9004C16.4999 26.95 16.5147 27.011 16.5147 27.0832C16.5147 27.1665 16.4929 27.2417 16.4493 27.3089C16.4062 27.3761 16.343 27.4295 16.2597 27.4691C16.1769 27.5088 16.0764 27.5286 15.958 27.5286C15.8477 27.5286 15.7521 27.5108 15.6714 27.4752C15.5911 27.4396 15.5279 27.3899 15.4818 27.3262C15.4361 27.2625 15.4103 27.1885 15.4043 27.1043H15.5969C15.6019 27.1624 15.6215 27.2106 15.6556 27.2487C15.6902 27.2863 15.7338 27.3144 15.7865 27.333C15.8396 27.351 15.8968 27.3601 15.958 27.3601C16.0292 27.3601 16.0932 27.3485 16.1499 27.3255C16.2065 27.3019 16.2514 27.2693 16.2845 27.2276C16.3176 27.1855 16.3342 27.1364 16.3342 27.0802C16.3342 27.029 16.3199 26.9874 16.2913 26.9553C16.2627 26.9232 16.2251 26.8971 16.1784 26.8771C16.1318 26.857 16.0814 26.8394 16.0272 26.8244L15.8376 26.7702C15.7173 26.7356 15.622 26.6862 15.5518 26.622C15.4815 26.5578 15.4464 26.4738 15.4464 26.37C15.4464 26.2837 15.4698 26.2085 15.5164 26.1443C15.5635 26.0796 15.6267 26.0294 15.706 25.9938C15.7857 25.9577 15.8748 25.9397 15.9731 25.9397C16.0724 25.9397 16.1606 25.9575 16.2379 25.9931C16.3151 26.0282 16.3763 26.0763 16.4214 26.1375C16.4671 26.1987 16.4912 26.2682 16.4937 26.3459H16.3131Z" fill="#FEFEFE"/>
<path d="M17.6266 27.5015V25.9607H17.8131V26.6469H18.6347V25.9607H18.8213V27.5015H18.6347V26.8124H17.8131V27.5015H17.6266Z" fill="#FEFEFE"/>
<path d="M21.2999 26.7311C21.2999 26.8936 21.2705 27.034 21.2118 27.1524C21.1532 27.2708 21.0727 27.3621 20.9703 27.4263C20.868 27.4905 20.7512 27.5226 20.6198 27.5226C20.4884 27.5226 20.3715 27.4905 20.2692 27.4263C20.1669 27.3621 20.0864 27.2708 20.0277 27.1524C19.969 27.034 19.9397 26.8936 19.9397 26.7311C19.9397 26.5686 19.969 26.4282 20.0277 26.3098C20.0864 26.1914 20.1669 26.1002 20.2692 26.036C20.3715 25.9718 20.4884 25.9397 20.6198 25.9397C20.7512 25.9397 20.868 25.9718 20.9703 26.036C21.0727 26.1002 21.1532 26.1914 21.2118 26.3098C21.2705 26.4282 21.2999 26.5686 21.2999 26.7311ZM21.1193 26.7311C21.1193 26.5977 21.097 26.4851 21.0524 26.3933C21.0082 26.3015 20.9483 26.2321 20.8725 26.1849C20.7973 26.1378 20.7131 26.1142 20.6198 26.1142C20.5265 26.1142 20.442 26.1378 20.3662 26.1849C20.291 26.2321 20.2311 26.3015 20.1864 26.3933C20.1423 26.4851 20.1202 26.5977 20.1202 26.7311C20.1202 26.8645 20.1423 26.9771 20.1864 27.0689C20.2311 27.1607 20.291 27.2302 20.3662 27.2773C20.442 27.3244 20.5265 27.348 20.6198 27.348C20.7131 27.348 20.7973 27.3244 20.8725 27.2773C20.9483 27.2302 21.0082 27.1607 21.0524 27.0689C21.097 26.9771 21.1193 26.8645 21.1193 26.7311Z" fill="#FEFEFE"/>
<path d="M22.4186 27.5015V25.9607H23.3485V26.1262H22.6052V26.6469H23.3004V26.8124H22.6052V27.336H23.3606V27.5015H22.4186Z" fill="#FEFEFE"/>
<path d="M24.4387 27.5015V27.3661L25.2693 26.1262H24.4297V25.9607H25.492V26.0961L24.6614 27.336H25.501V27.5015H24.4387Z" fill="#FEFEFE"/>
<path d="M3.69152 16.0007V23.5827H0V24.475H11.9668V23.5827H7.83792V16.0007H3.69152Z" fill="#FEFEFE"/>
<path d="M3.69152 9.64505H7.83792V1.90599H12.9291C14.7952 1.90599 16.119 2.19175 16.9005 2.76327C17.6936 3.33478 18.2943 4.31452 18.7025 5.70248C19.1108 7.07878 19.3149 7.87774 19.3149 8.09935H20.1022L19.8047 1.01373H0V1.90599H3.69152V9.64505Z" fill="#FEFEFE"/>
<path d="M13.25 9.64505H14.4687V7.66196H13.5764C13.5236 8.44058 13.4148 9.10161 13.25 9.64505Z" fill="#FEFEFE"/>
<path d="M14.4687 16.0007H13.3934C13.4779 16.4668 13.5389 16.9997 13.5764 17.5993H14.4687V16.0007Z" fill="#FEFEFE"/>
<path d="M23.5405 16.0007H28.0627C28.1435 17.9701 28.3037 19.4069 28.5433 20.3111C28.9049 21.6757 29.5289 22.6555 30.4153 23.2503C31.3134 23.8335 32.299 24.1251 33.372 24.1251C34.7717 24.1251 36.0838 23.6002 37.3085 22.5505C38.5448 21.4891 39.5012 19.7921 40.1777 17.4594H41L40.7201 24.615H40.0028C39.7345 23.8685 39.3146 23.2387 38.7431 22.7255C36.9003 24.2534 35.0049 25.0173 33.0571 25.0173C30.5844 25.0173 28.3275 23.8452 26.2864 21.5008C24.9008 19.9093 23.9855 18.076 23.5405 16.0007Z" fill="#FEFEFE"/>
<path d="M28.0679 9.64505H23.5507C23.9937 7.55549 24.8881 5.70478 26.2339 4.09291C28.2401 1.67855 30.5611 0.471375 33.1971 0.471375C35.2265 0.471375 37.0169 1.20035 38.5681 2.65829C39.023 1.93515 39.3671 1.29949 39.6004 0.7513H40.3527V7.71445H39.6004C38.7839 3.48057 36.6728 1.36364 33.2671 1.36364C31.4359 1.36364 30.1004 2.08095 29.2606 3.51557C28.6144 4.61949 28.2168 6.66265 28.0679 9.64505Z" fill="#FEFEFE"/>
</svg>
