<svg width="21" height="20" viewBox="0 0 21 20" fill="none" xmlns="http://www.w3.org/2000/svg">
<path fill-rule="evenodd" clip-rule="evenodd" d="M9.49997 1.66669C5.35783 1.66669 1.99997 5.02455 1.99997 9.16669C1.99997 13.3088 5.35783 16.6667 9.49997 16.6667C11.2708 16.6667 12.8983 16.053 14.1814 15.0266L17.244 18.0893C17.5695 18.4147 18.0971 18.4147 18.4226 18.0893C18.748 17.7638 18.748 17.2362 18.4226 16.9108L15.3599 13.8481C16.3862 12.565 17 10.9375 17 9.16669C17 5.02455 13.6421 1.66669 9.49997 1.66669ZM3.66664 9.16669C3.66664 5.94503 6.27831 3.33335 9.49997 3.33335C12.7216 3.33335 15.3333 5.94503 15.3333 9.16669C15.3333 12.3883 12.7216 15 9.49997 15C6.27831 15 3.66664 12.3883 3.66664 9.16669Z" fill="#B3B3B3"/>
</svg>
