<svg width="201" height="194" viewBox="0 0 201 194" fill="none" xmlns="http://www.w3.org/2000/svg">
<path d="M103.784 3.0401C102.951 6.87846 103.472 25.1564 104.512 25.9789C104.929 26.3444 105.657 26.3444 106.282 25.9789C107.53 25.3392 107.947 3.95399 106.802 1.39509C105.761 -0.981041 104.408 -0.249926 103.784 3.0401Z" fill="#040404"/>
<path d="M154.106 18.9473C150.476 22.7799 143.57 33.7431 143.57 35.4366C143.57 39.3583 147.2 35.4366 153.84 24.2952C157.558 18.2342 157.647 15.0255 154.106 18.9473Z" fill="#040404"/>
<path d="M53.3262 33.0835C53.3262 35.051 71.2048 51.6847 73.3028 51.6847C76.2218 51.6847 74.8535 49.8067 64.9108 40.2378C56.9749 32.6364 53.3262 30.4007 53.3262 33.0835Z" fill="#040404"/>
<path d="M113.137 50.6082C107.081 57.0221 98.6201 67.4446 94.5232 73.7693L93.0982 75.9073L75.82 73.0567C54.8013 69.5825 43.4012 68.6917 40.2841 70.3842C37.5231 71.8095 36.8997 75.7291 38.9481 78.7579C40.7294 81.5194 51.7731 90.2493 62.1044 97.1977C66.4685 100.137 70.4763 102.81 70.9216 103.255C71.3669 103.612 69.1404 106.818 65.9341 110.471C53.9106 124.011 45.6278 136.215 45.6278 140.402C45.6278 141.293 46.0731 142.451 46.6966 143.074C49.2794 145.658 55.2466 143.876 78.2247 133.899C86.5966 130.247 94.0779 127.218 94.9685 127.218C95.7701 127.218 98.3529 129.267 100.669 131.85C113.85 146.281 127.655 158.04 132.553 158.931C139.411 160.178 139.678 156.793 134.601 136.839C130.415 120.626 130.237 121.695 138.609 118.755C144.933 116.528 155.798 111.005 160.34 107.709C163.191 105.571 164.081 104.324 164.081 102.364C164.081 98.8011 161.855 97.554 148.762 93.8126C128.367 87.8442 126.942 87.3097 125.873 84.6372C125.25 83.1228 124.983 75.8182 125.072 64.1486C125.339 47.1341 125.25 45.976 123.647 44.7289C122.667 44.0162 121.42 43.4818 120.975 43.4818C120.44 43.4818 116.878 46.6887 113.137 50.6082ZM120.44 69.2262V86.9533L122.756 89.7149C125.072 92.5655 129.614 94.1689 149.742 99.781C153.928 100.939 157.401 102.275 157.58 102.81C157.758 103.344 153.215 106.106 147.426 108.867C141.637 111.718 134.69 115.103 132.019 116.35C125.428 119.646 125.161 121.16 128.634 134.255C132.82 150.29 133.265 152.161 132.642 152.695C131.573 153.764 127.387 150.29 114.117 137.373C106.903 130.425 99.956 124.011 98.7092 123.12C95.3248 120.982 92.5638 121.695 74.3951 129.356C58.1856 136.126 53.6434 137.73 53.6434 136.572C53.6434 135.057 60.7685 125.436 68.8732 116.083C74.6622 109.402 77.6904 105.215 77.6904 103.79C77.6904 101.206 75.2857 98.9793 62.995 90.4275C57.6513 86.597 51.2388 81.7866 48.745 79.5596L44.2919 75.64L49.0122 75.551C51.595 75.551 62.3716 76.9762 72.881 78.7579C83.3904 80.5395 92.5638 81.6976 93.2763 81.4303C93.8998 81.2521 100.045 74.3929 106.814 66.2865C113.583 58.0911 119.372 51.499 119.728 51.499C120.173 51.499 120.44 59.5163 120.44 69.2262Z" fill="#040404"/>
<path d="M167.99 61.2014C155.35 68.3013 153.671 69.6325 155.88 70.52C158.002 71.3187 182.132 57.7402 182.132 55.7878C182.132 53.8353 178.596 55.2553 167.99 61.2014Z" fill="#040404"/>
<path d="M0.102839 60.1732C0.644298 61.705 18.1515 68.9132 21.0392 68.9132C25.3709 68.9132 22.3026 66.5705 13.0076 62.8763C3.26135 58.9118 -0.709348 58.1008 0.102839 60.1732Z" fill="#040404"/>
<path d="M27.6218 107.961C17.4844 111.729 14.4432 113.165 13.9824 114.511C13.7981 115.228 14.351 115.677 15.3648 115.677C18.0373 115.587 38.0357 107.244 38.4965 105.988C39.0494 104.283 36.0082 104.732 27.6218 107.961Z" fill="#040404"/>
<path d="M175.55 106.866C174.648 107.045 173.926 107.583 173.926 108.032C173.926 109.467 179.882 110.633 190.441 111.261C199.555 111.799 200.999 111.71 200.999 110.454C200.999 109.019 198.653 108.391 188.816 107.583C185.387 107.314 181.326 106.955 179.792 106.776C178.348 106.597 176.362 106.597 175.55 106.866Z" fill="#040404"/>
<path d="M158.338 139.43C158.338 141.23 177.476 157.517 179.514 157.517C180.046 157.517 180.489 157.157 180.489 156.797C180.489 155.717 173.755 149.328 166.755 143.659C160.907 138.89 158.338 137.631 158.338 139.43Z" fill="#040404"/>
<path d="M34.9399 153.989C32.0448 155.818 22.0025 164.003 21.1883 165.135C20.2836 166.267 20.2836 168.183 21.1883 168.183C22.6358 168.183 38.5587 155.034 38.5587 153.815C38.5587 152.16 37.654 152.16 34.9399 153.989Z" fill="#040404"/>
<path d="M90.2896 171.682C90.056 185.047 90.7568 190.288 92.5476 188.279C94.3384 186.183 93.4819 164.082 91.5354 164.082C90.6789 164.082 90.4453 165.829 90.2896 171.682Z" fill="#040404"/>
<path d="M138.691 167.779C138.329 168.33 140.318 173.571 143.121 179.548C148.003 189.938 150.263 193.616 151.89 193.616C153.517 193.616 152.432 190.306 147.551 180.468C142.307 169.709 139.685 166.032 138.691 167.779Z" fill="#040404"/>
</svg>
