<svg width="78" height="68" viewBox="0 0 78 68" fill="none" xmlns="http://www.w3.org/2000/svg">
<path d="M28.0172 3.55539C28.1384 4.58804 28.7088 6.81616 29.2968 8.48655C30.488 11.9786 30.7052 13.8509 30.0128 14.9952C29.6194 15.6453 28.7634 15.9445 24.6363 16.8935C19.5648 18.0528 18.4631 18.5231 17.1384 20.0664C16.0806 21.3449 15.7477 23.9502 16.3919 25.9388C16.665 26.7791 17.8349 29.0147 18.9903 30.9218C20.1717 32.8446 21.1909 34.918 21.3033 35.5544C21.619 37.5574 20.7192 38.3986 15.4174 41.2304C10.8573 43.6583 9.30135 45.7013 9.45576 49.0278C9.56561 51.7234 11.6887 54.145 13.6137 53.782C14.9858 53.5109 15.0398 53.0106 13.812 52.3387C12.5322 51.6354 11.9736 50.4447 12.0582 48.7195C12.1763 46.4106 13.5996 44.9979 17.6362 43.1415C22.973 40.7216 25.3158 37.3783 23.9987 34.0944C23.7611 33.4888 22.4661 31.284 21.1758 29.1888C19.2374 26.1684 18.7514 25.0926 18.6876 24.0237C18.562 21.3541 19.8163 20.5143 25.2778 19.5911C29.8683 18.8158 31.2102 18.2422 32.322 16.4634C33.1088 15.1631 33.3125 13.6521 32.9188 11.6018C32.4175 9.02471 29.5163 1.37148 28.9181 1.00955C28.0859 0.505984 27.7384 1.43262 28.0172 3.55539Z" fill="#040404"/>
<path d="M49.9307 17.7992C49.7137 18.816 49.5376 21.1092 49.5575 22.88C49.5631 26.5695 49.1669 28.4123 48.1434 29.2733C47.5619 29.7625 46.6551 29.7707 42.442 29.3428C37.267 28.8104 36.0726 28.9016 34.3222 29.9373C32.9096 30.8079 31.7569 33.1679 31.7277 35.2581C31.7163 36.1416 32.1055 38.6346 32.5866 40.8118C33.0872 43.0124 33.3859 45.3034 33.2877 45.9421C32.9429 47.9403 31.8205 48.4476 25.8897 49.425C20.7912 50.2583 18.6612 51.6927 17.7382 54.8924C16.9758 57.4802 18.2079 60.4557 20.1474 60.7308C21.5338 60.915 21.7457 60.4587 20.799 59.4278C19.8132 58.3505 19.667 57.0434 20.3017 55.437C21.1557 53.2885 22.9574 52.4083 27.3766 51.9478C33.208 51.3718 36.501 48.959 36.3094 45.4259C36.2791 44.7761 35.7615 42.2721 35.2132 39.8733C34.3484 36.3901 34.234 35.2152 34.5171 34.1825C35.2563 31.6142 36.714 31.2221 42.1825 32.1034C46.7785 32.8448 48.2336 32.7329 49.8581 31.4059C51.0211 30.4275 51.6997 29.0621 51.9859 26.9941C52.3396 24.3926 52.0523 16.213 51.6022 15.678C50.976 14.9337 50.3491 15.6994 49.9307 17.7992Z" fill="#040404"/>
<path d="M71.3478 38.9461C70.7451 39.7933 69.6735 41.8284 68.9891 43.4617C67.5301 46.8505 66.4353 48.3848 65.1542 48.769C64.4263 48.9873 63.5907 48.6349 59.8932 46.5703C55.3544 44.0282 54.2219 43.6379 52.2042 43.894C50.562 44.1326 48.5675 45.8415 47.7114 47.7484C47.3503 48.5549 46.7182 50.9976 46.2959 53.187C45.8822 55.4056 45.2473 57.627 44.9037 58.1743C43.7943 59.8716 42.5627 59.8919 36.7311 58.4356C31.7205 57.1774 29.1961 57.6488 27.0792 60.2195C25.3525 62.2924 25.3027 65.5125 26.9738 66.5346C28.1733 67.2538 28.5489 66.9191 28.089 65.5972C27.6117 64.2171 27.9961 62.9593 29.2161 61.7366C30.8526 60.1034 32.8557 60.0104 37.0947 61.3414C42.676 63.1266 46.6561 62.2186 47.8821 58.8996C48.1122 58.2911 48.6307 55.7872 49.0793 53.3678C49.6677 49.8274 50.0288 48.7036 50.6986 47.8681C52.3962 45.804 53.8897 46.0224 58.5596 49.0013C62.4841 51.5056 63.8641 51.9803 65.8818 51.4069C67.3376 50.9703 68.5023 49.9863 69.5855 48.2017C70.9425 45.9541 73.9246 38.332 73.7237 37.6623C73.4443 36.7306 72.565 37.1847 71.3478 38.9461Z" fill="#040404"/>
</svg>
