<svg width="25" height="26" viewBox="0 0 25 26" fill="none" xmlns="http://www.w3.org/2000/svg">
<path fill-rule="evenodd" clip-rule="evenodd" d="M2.99183 11.4452C4.14632 11.0338 5.36121 10.4871 6.29808 9.6955C7.41077 8.75532 7.86329 7.54445 8.16717 6.26987C8.55731 4.63234 8.7132 2.88798 9.18627 1.2478C9.36144 0.63871 9.69853 0.408471 9.84317 0.306292C10.2088 0.04819 10.5783 -0.0208005 10.926 0.00507606C11.338 0.0349336 11.904 0.190846 12.2762 0.88155C12.3293 0.980412 12.3983 1.13103 12.4447 1.33738C12.4786 1.48866 12.5005 1.96173 12.5363 2.1568C12.6259 2.63717 12.7008 3.11756 12.7712 3.60059C13.0054 5.20826 13.1401 6.57372 13.8799 8.05068C14.8838 10.0558 15.8897 11.2826 17.2538 11.826C18.5729 12.3515 20.15 12.2527 22.165 11.8406C22.3568 11.7942 22.5465 11.7544 22.7343 11.7218C23.6227 11.5666 24.472 12.1498 24.6465 13.0349C24.821 13.9194 24.2564 14.7812 23.3759 14.9756C23.1922 15.0161 23.011 15.0546 22.8319 15.0898C20.1089 15.7639 16.9565 18.1697 15.1246 20.2764C14.56 20.9259 13.7333 22.7419 12.89 23.9004C12.2676 24.755 11.5683 25.3183 10.9811 25.5174C10.5876 25.6514 10.2559 25.6308 9.98184 25.5632C9.58373 25.465 9.25332 25.2493 8.99987 24.9063C8.86186 24.7185 8.73378 24.467 8.67273 24.1459C8.64354 23.9913 8.64024 23.5985 8.6409 23.4207C8.46906 22.8295 8.25872 22.2523 8.10545 21.6558C7.73986 20.2326 7.02261 19.3315 6.17067 18.1412C5.37381 17.0272 4.51792 16.3272 3.26324 15.7685C3.10002 15.7287 1.78296 15.4063 1.31785 15.2211C0.638424 14.9498 0.314618 14.4953 0.197178 14.2504C-0.00253574 13.8351 -0.0230861 13.4722 0.0167239 13.1696C0.0757755 12.7231 0.276154 12.3409 0.631791 12.0324C0.852073 11.8406 1.18117 11.6542 1.62174 11.5633C1.96211 11.4923 2.8651 11.4511 2.99183 11.4452ZM10.7183 9.12554C10.7794 9.26156 10.8444 9.39826 10.9134 9.53626C12.3837 12.4729 14.0279 14.1124 16.0263 14.908L16.0933 14.9339C14.7564 15.9264 13.5461 17.0358 12.6212 18.0994C12.2404 18.5373 11.7361 19.447 11.1914 20.3799C10.6964 18.7709 9.88695 17.6336 8.86914 16.2104C8.09152 15.1243 7.27674 14.3069 6.27552 13.6407C7.05248 13.2419 7.7936 12.7748 8.43919 12.2294C9.51406 11.3211 10.2247 10.2688 10.7183 9.12554Z" fill="#802E00"/>
</svg>
