<svg width="276" height="159" viewBox="0 0 276 159" fill="none" xmlns="http://www.w3.org/2000/svg">
<path d="M258.217 105.024C250.101 104.223 248.861 104.582 215.536 118.737C209.109 121.592 203.17 123.171 202.416 122.255C201.663 121.338 200.478 113.763 199.734 105.388C196.69 75.0126 193.152 65.6407 184.633 66.4844C182.068 66.8328 171.813 70.6329 161.727 75.1714C144.451 82.9705 137.093 85.4926 136.017 84.1833C135.694 83.7906 132.679 73.9893 129.22 62.5802C125.892 51.0637 121.562 39.9296 119.839 37.8348C115.641 32.7288 109.865 32.64 89.659 37.1424C80.5461 39.1304 70.848 40.9403 68.0677 41.0269L63.0081 41.0088L57.4095 21.9299C54.3575 11.2828 50.7953 2.14932 49.3256 1.16218C45.6934 -1.12106 38.6913 0.233114 20.5544 6.98479C4.79043 12.8879 -0.96655 16.2898 0.863617 18.5155C2.1555 20.0866 8.68015 18.6853 26.2461 12.8397C33.9502 10.4721 41.4999 8.45016 42.9088 8.82979C44.6874 9.1256 46.8219 14.3889 49.9582 25.4052C52.3502 34.1827 55.6971 43.0543 57.4196 45.1491C61.4872 50.3626 68.5642 50.7 88.4002 46.2814C112.566 40.7261 112.435 40.8335 115.529 48.5975C116.872 52.0985 119.994 62.0307 122.387 70.8082C127.784 90.7093 131.36 94.7916 141.666 92.9214C145.841 92.1303 154.355 88.8802 160.936 85.6799C175.886 78.2528 183.852 75.6705 185.574 77.7653C186.328 78.6817 188.018 88.4726 189.352 99.4314C192.456 124.279 193.491 128.472 197.876 131.671C202.024 134.847 212.054 132.108 232.297 122.316C248.857 114.446 258.077 112.589 261.199 116.386C262.383 117.826 265.669 126.09 268.562 134.676C275.237 155.065 277.657 159.875 280.541 157.513C284.603 154.184 278.04 124.063 270.822 112.884C266.525 106.325 265.856 105.778 258.217 105.024Z" fill="#0E0E0E"/>
</svg>
