<svg width="254" height="159" viewBox="0 0 254 159" fill="none" xmlns="http://www.w3.org/2000/svg">
<path d="M258.252 105.434C250.135 104.633 248.895 104.992 215.57 119.147C209.144 122.002 203.204 123.581 202.45 122.665C201.697 121.748 200.512 114.173 199.768 105.798C196.725 75.4227 193.186 66.0509 184.667 66.8945C182.102 67.2429 171.847 71.0431 161.761 75.5816C144.485 83.3807 137.127 85.9028 136.051 84.5935C135.728 84.2008 132.713 74.3995 129.254 62.9904C125.926 51.4739 121.596 40.3398 119.873 38.245C115.675 33.1389 109.899 33.0502 89.6932 37.5526C80.5802 39.5406 70.8822 41.3505 68.1019 41.4371L63.0422 41.419L57.4437 22.3401C54.3917 11.693 50.8295 2.55949 49.3597 1.57235C45.7276 -0.710889 38.7255 0.643285 20.5885 7.39497C4.82461 13.2981 -0.93237 16.7 0.897796 18.9257C2.18968 20.4968 8.71433 19.0955 26.2803 13.2499C33.9844 10.8823 41.5341 8.86033 42.9429 9.23996C44.7216 9.53577 46.8561 14.7991 49.9924 25.8154C52.3844 34.5928 55.7313 43.4645 57.4538 45.5593C61.5214 50.7727 68.5984 51.1102 88.4344 46.6916C112.6 41.1363 112.469 41.2437 115.563 49.0077C116.906 52.5087 120.029 62.4409 122.421 71.2184C127.818 91.1195 131.394 95.2017 141.701 93.3315C145.876 92.5405 154.389 89.2904 160.97 86.0901C175.92 78.663 183.886 76.0806 185.608 78.1754C186.362 79.0919 188.052 88.8828 189.386 99.8416C192.49 124.689 193.525 128.882 197.911 132.081C202.058 135.258 212.088 132.518 232.331 122.726C248.891 114.856 258.111 112.999 261.233 116.796C262.418 118.236 265.704 126.5 268.596 135.087C275.272 155.475 277.692 160.285 280.575 157.923C284.637 154.594 278.074 124.473 270.857 113.295C266.56 106.735 265.89 106.188 258.252 105.434Z" fill="#0E0E0E"/>
</svg>
