<svg width="276" height="159" viewBox="0 0 276 159" fill="none" xmlns="http://www.w3.org/2000/svg">
<path d="M17.7822 105.024C25.8983 104.223 27.1387 104.582 60.4638 118.737C66.8901 121.592 72.8297 123.171 73.5833 122.254C74.3369 121.338 75.5213 113.762 76.2658 105.388C79.3091 75.0125 82.8479 65.6407 91.3664 66.4843C93.9314 66.8327 104.186 70.6328 114.273 75.1714C131.549 82.9705 138.906 85.4925 139.983 84.1833C140.306 83.7905 143.32 73.9892 146.78 62.5801C150.108 51.0637 154.438 39.9296 156.16 37.8348C160.359 32.7287 166.135 32.64 186.341 37.1424C195.454 39.1303 205.152 40.9403 207.932 41.0268L212.992 41.0088L218.59 21.9299C221.642 11.2828 225.204 2.14926 226.674 1.16212C230.306 -1.12112 237.308 0.233053 255.445 6.98473C271.209 12.8879 276.966 16.2897 275.136 18.5154C273.844 20.0865 267.319 18.6853 249.753 12.8396C242.049 10.472 234.5 8.4501 233.091 8.82972C231.312 9.12554 229.178 14.3888 226.041 25.4051C223.649 34.1826 220.302 43.0543 218.58 45.1491C214.512 50.3625 207.435 50.6999 187.599 46.2814C163.434 40.7261 163.565 40.8334 160.471 48.5975C159.127 52.0985 156.005 62.0307 153.613 70.8081C148.216 90.7093 144.64 94.7915 134.333 92.9213C130.158 92.1303 121.644 88.8802 115.064 85.6799C100.114 78.2528 92.1478 75.6704 90.4253 77.7652C89.6717 78.6817 87.9817 88.4726 86.6474 99.4314C83.5435 124.279 82.5089 128.472 78.1231 131.671C73.9761 134.847 63.9457 132.108 43.7026 122.316C27.143 114.446 17.9224 112.589 14.8004 116.386C13.6161 117.826 10.3301 126.09 7.43728 134.676C0.762175 155.065 -1.65783 159.875 -4.54098 157.513C-8.6036 154.184 -2.04051 124.063 5.17724 112.884C9.4742 106.325 10.1435 105.778 17.7822 105.024Z" fill="#0E0E0E"/>
</svg>
