<svg width="254" height="159" viewBox="0 0 254 159" fill="none" xmlns="http://www.w3.org/2000/svg">
<path d="M-4.25194 105.434C3.86416 104.633 5.10451 104.992 38.4296 119.147C44.856 122.002 50.7955 123.581 51.5491 122.665C52.3027 121.748 53.4871 114.173 54.2316 105.798C57.2749 75.4227 60.8137 66.0509 69.3323 66.8945C71.8972 67.2429 82.1522 71.043 92.2387 75.5815C109.514 83.3806 116.872 85.9027 117.949 84.5935C118.272 84.2007 121.286 74.3994 124.746 62.9903C128.074 51.4738 132.404 40.3397 134.126 38.2449C138.325 33.1389 144.101 33.0501 164.306 37.5525C173.419 39.5405 183.117 41.3505 185.898 41.437L190.957 41.4189L196.556 22.3401C199.608 11.693 203.17 2.55943 204.64 1.57229C208.272 -0.71095 215.274 0.643224 233.411 7.3949C249.175 13.298 254.932 16.6999 253.102 18.9256C251.81 20.4967 245.285 19.0954 227.719 13.2498C220.015 10.8822 212.466 8.86027 211.057 9.2399C209.278 9.53571 207.144 14.799 204.007 25.8153C201.615 34.5928 198.268 43.4644 196.546 45.5592C192.478 50.7727 185.401 51.1101 165.565 46.6915C141.4 41.1363 141.531 41.2436 138.437 49.0076C137.093 52.5086 133.971 62.4409 131.579 71.2183C126.182 91.1194 122.606 95.2017 112.299 93.3315C108.124 92.5404 99.6101 89.2903 93.0294 86.09C78.0799 78.6629 70.1137 76.0806 68.3911 78.1754C67.6375 79.0919 65.9476 88.8827 64.6133 99.8415C61.5093 124.689 60.4748 128.882 56.089 132.081C51.9419 135.258 41.9116 132.518 21.6684 122.726C5.10888 114.856 -4.11176 112.999 -7.2338 116.796C-8.41803 118.236 -11.704 126.5 -14.5969 135.087C-21.272 155.475 -23.692 160.285 -26.5751 157.923C-30.6378 154.594 -24.0747 124.473 -16.8569 113.294C-12.56 106.735 -11.8906 106.188 -4.25194 105.434Z" fill="#0E0E0E"/>
</svg>
